#!OML:ASF F:\VICON\USERDATA\INSTALL\rory3\rory3.ASF
:FULLY-SPECIFIED
:DEGREES
46
root 0.6418619009430688 17.863882140613043 16.157453775626948 -3.4865273513756527 -4.747026580473873 -1.356246215743568
lfemur -18.92471896816553 -0.1601499433284248 -20.736715669279747
ltibia 31.88524968750242
lfoot -6.52173842455528 -1.9705309541075007
ltoes -2.8103652128710745
rfemur -2.351692477538103 0.7002079202681233 24.350866124078056
rtibia 57.89002600741345
rfoot 3.434486255281575 -2.2311991700305773
rtoes 4.173465345132591
lowerback 9.577394147846544 1.8954532964638728 2.3250205979127654
upperback 0.0719203855923457 2.9882187121770576 0.7860884239857964
thorax -5.219460075938911 1.3339186152932232 -0.9559036673904548
lowerneck -16.16331248407821 -2.7902029158319146 -2.2927190857298383
upperneck 21.714601185482056 -3.908871734934977 0.5930473759709789
head 9.456310215165367 -1.8348178534533985 0.12006176776185214
lclavicle -4.532846863985996e-16 -7.764205475280987e-16
lhumerus -40.161183109426005 15.83767708695845 75.61967836742156
lradius 21.578959517676218
lwrist 3.1859764110583066
lhand -27.740178042885933 21.575901961494914
lfingers 7.12502
lthumb -0.49331245967345794 53.21779305685409
rclavicle -4.541517429183626e-16 -7.770906947950878e-16
rhumerus -23.238795829045916 -15.857580844294736 -81.26050270974766
rradius 29.419964468839666
rwrist 3.7174507055686563
rhand -18.221249346775842 22.652966015452073
rfingers 7.12502
rthumb 8.04046395000502 -7.117433697791538
47
root 0.6894696095274513 17.893087137791603 16.613135426021735 -3.8780177440272476 -4.961470277254806 -0.38173370802005424
lfemur -15.783370451069498 -0.3895128129186183 -22.17749322502297
ltibia 31.36733070616632
lfoot -6.919574859903945 -1.3214865388255916
ltoes -3.068450800714281
rfemur -7.465560031170621 -0.7472041483128202 23.110508803814728
rtibia 60.64932699827689
rfoot 2.4076539648627477 -3.3419410894504447
rtoes 3.669782431758128
lowerback 9.859535692068036 1.6752604323762597 1.3698521338783112
upperback 0.15195652899956888 2.708429322764384 0.6361205595979448
thorax -5.2644385107588025 1.1992029791430627 -0.5536315050177343
lowerneck -16.217803625319057 -2.791526011498619 -2.258570246397597
upperneck 21.785492276627558 -3.813386763966722 0.4813741504561884
head 9.448353549930092 -1.818081056179358 0.11046851958374179
lclavicle -4.532846860022736e-16 -7.764205472217787e-16
lhumerus -39.57555523713216 14.405843816890279 76.24852259638713
lradius 22.524818258939163
lwrist 3.749838240761825
lhand -27.88448293959373 21.23578418245316
lfingers 7.12502
lthumb -0.6916056497701832 52.743742850116426
rclavicle -4.54151742561886e-16 -7.770906945195674e-16
rhumerus -23.983764314877458 -17.189702490660054 -81.02517617075402
rradius 29.20962730764057
rwrist 3.887664321335615
rhand -18.193355462228723 22.671693850169728
rfingers 7.12502
rthumb 8.051533885714933 -7.150611054750149
48
root 0.7232970574752733 17.918300350012256 17.41431440121885 -4.11744840920367 -4.879538899674224 0.2899585367366484
lfemur -12.678876910720248 -0.6888998718656996 -23.168149016419605
ltibia 30.079736071959985
lfoot -7.593024060923676 -0.6352952749040206
ltoes -3.0122975214739376
rfemur -12.83808290068473 -2.2042024274735996 22.269627920844894
rtibia 61.67895282208346
rfoot 0.4229901410414225 -4.281661875349318
rtoes 3.4955450530516594
lowerback 10.153557364669672 1.3727308156070481 0.6652556796988125
upperback 0.22539169927871933 2.3355548410992384 0.5636083501637202
thorax -5.277821895421092 1.0626639680604613 -0.08636126642596809
lowerneck -16.27547405116598 -2.798005979925902 -2.23763179082603
upperneck 21.842018112748747 -3.7100671461213914 0.3792436792930357
head 9.444580540456537 -1.7893260488290916 0.10643587218728326
lclavicle -4.532846855259072e-16 -7.764205468535955e-16
lhumerus -38.44322977476064 13.013175585626282 76.87058857101898
lradius 23.38890746390417
lwrist 4.153549598678444
lhand -27.779844941577576 21.62265000886287
lfingers 7.12502
lthumb -0.42672844771648744 53.56159042924212
rclavicle -4.54151742390658e-16 -7.770906943872254e-16
rhumerus -24.911649519779754 -18.562346997314062 -80.63713676846808
rradius 29.055926907566892
rwrist 4.01230799404992
rhand -18.19414153672564 22.593523566547333
rfingers 7.12502
rthumb 8.065803114570635 -7.156762830925804
49
root 0.7407005051392558 17.932083484641907 18.143649299183036 -4.258611892841303 -4.471170127495972 0.7174036878541288
lfemur -9.977468475904379 -1.44705666936163 -24.079475794516163
ltibia 28.886106512031247
lfoot -8.396458877886582 -0.10162513556039743
ltoes -2.7669620106420885
rfemur -17.322265258259105 -3.238508376988921 22.072790248685934
rtibia 60.930120154153755
rfoot -1.6376699097791185 -4.856792930280356
rtoes 3.71732615655691
lowerback 10.412693447115533 1.0334600214497491 0.163649718791113
upperback 0.29118209076388796 1.8896869854096732 0.5661047753625468
thorax -5.292471951755734 0.8825048175636602 0.2777925700951646
lowerneck -16.2925896594009 -2.798699342713839 -2.195228399622953
upperneck 21.87165691274486 -3.628714471467578 0.3212157618259553
head 9.434507592958322 -1.7679869000575994 0.09780590660087349
lclavicle -4.532846855072549e-16 -7.764205468391791e-16
lhumerus -37.00928348132021 11.264583871880944 77.4497684855133
lradius 24.200620473614745
lwrist 4.5739083041120505
lhand -27.797880614494154 21.57789024295483
lfingers 7.12502
lthumb -0.5800661818054578 53.20014914996628
rclavicle -4.541517424618936e-16 -7.770906944422833e-16
rhumerus -26.128601140997922 -19.58452861079496 -80.16318404764586
rradius 28.99716074946285
rwrist 3.983918196686193
rhand -18.180060546788365 22.541116590687693
rfingers 7.12502
rthumb 8.106834942744412 -7.12602484438392
